<?xml version="1.0" standalone="no"?><!DOCTYPE svg PUBLIC "-//W3C//DTD SVG 1.1//EN" "http://www.w3.org/Graphics/SVG/1.1/DTD/svg11.dtd"><svg t="1621409244877" class="icon" viewBox="0 0 1024 1024" version="1.1" xmlns="http://www.w3.org/2000/svg" p-id="8230" xmlns:xlink="http://www.w3.org/1999/xlink" width="32" height="32"><defs><style type="text/css"></style></defs><path d="M511.74 240.62h-4.25c-3.04 0-5.5-2.46-5.5-5.5v-34.74c0-3.04 2.46-5.5 5.5-5.5h4.25c3.04 0 5.5 2.46 5.5 5.5v34.74c-0.01 3.04-2.47 5.5-5.5 5.5zM511.74 827.44h-4.25c-3.04 0-5.5-2.46-5.5-5.5V787.2c0-3.04 2.46-5.5 5.5-5.5h4.25c3.04 0 5.5 2.46 5.5 5.5v34.74c-0.01 3.04-2.47 5.5-5.5 5.5zM781.43 513.29v-4.25c0-3.04 2.46-5.5 5.5-5.5h34.74c3.04 0 5.5 2.46 5.5 5.5v4.25c0 3.04-2.46 5.5-5.5 5.5h-34.74c-3.04 0-5.5-2.46-5.5-5.5zM194.61 513.29v-4.25c0-3.04 2.46-5.5 5.5-5.5h34.74c3.04 0 5.5 2.46 5.5 5.5v4.25c0 3.04-2.46 5.5-5.5 5.5h-34.74c-3.04 0-5.5-2.46-5.5-5.5zM509.98 244.43l-22.11 254.04h43.71zM668.76 625.56L535.71 503.54l-25.38 35.59z" fill="#AAAAAA" p-id="8231"></path><path d="M509.68 508.76m-24.06 0a24.06 24.06 0 1 0 48.12 0 24.06 24.06 0 1 0-48.12 0Z" fill="#FFFFFF" p-id="8232"></path><path d="M509.68 542.82c-18.78 0-34.06-15.28-34.06-34.06s15.28-34.06 34.06-34.06 34.06 15.28 34.06 34.06-15.28 34.06-34.06 34.06z m0-48.12c-7.76 0-14.06 6.31-14.06 14.06 0 7.75 6.31 14.06 14.06 14.06s14.06-6.31 14.06-14.06c0-7.76-6.31-14.06-14.06-14.06z" fill="#222222" p-id="8233"></path><path d="M801.26 283.19c-6-8.54-13-17.99-20.4-27.99-23.63-31.92-53.04-71.64-73.7-113.83-6.84-13.95-11.91-24.67-16.37-34.12-10.33-21.85-16.63-35.19-32.05-60.8-0.57-0.09-1.52-0.18-3.04-0.18H367.14c-1.19 0-2.02 0.03-2.59 0.08-17.03 30.67-23.11 43.17-37.42 72.57-3.19 6.56-6.79 13.95-11 22.55l-3.74 7.65c-27.86 56.96-35.35 72.27-80.75 122.92l-14.89-13.35c43.55-48.57 50.1-61.97 77.68-118.35l3.75-7.65c4.2-8.58 7.79-15.96 10.98-22.51 14.73-30.33 20.84-42.88 38.9-75.34 4.78-8.58 15.17-8.58 19.08-8.58H655.7c3.51 0 14.2 0 19.35 8.49C691.6 62.13 698.1 75.9 708.88 98.7c4.44 9.39 9.47 20.03 16.25 33.86 19.86 40.56 48.67 79.47 71.81 110.73 7.48 10.11 14.55 19.65 20.69 28.39l-16.37 11.51z" fill="#222222" p-id="8234"></path><path d="M655.7 998.11H367.14c-4.44 0-14.82 0-19.3-9.01l-5.11-10.29c-16.47-33.14-23.29-46.86-44.57-90.36-18.53-38.05-44.52-81.5-66.22-110.71l16.05-11.93c22.72 30.59 48.83 74.21 68.14 113.86 21.25 43.43 28.05 57.13 44.5 90.23l4.04 8.14c0.63 0.04 1.45 0.06 2.46 0.06H655.7c1.33 0 2.22-0.06 2.81-0.13 14.68-28.71 21.7-43.11 33.18-66.66 4.31-8.83 9.25-18.98 15.48-31.67 19.62-40.04 45.28-82.6 68.64-113.86l16.02 11.97c-22.33 29.87-47.89 72.28-66.7 110.69-6.22 12.68-11.16 22.82-15.46 31.64-11.77 24.14-18.87 38.7-34.26 68.78-4.74 9.25-16.01 9.25-19.71 9.25z" p-id="8235"></path><path d="M511.88 897.41c-52.31 0-103.07-10.25-150.86-30.46-46.15-19.52-87.6-47.46-123.19-83.05-35.59-35.59-63.53-77.03-83.05-123.19-20.21-47.79-30.46-98.54-30.46-150.86 0-52.31 10.25-103.07 30.46-150.86 19.52-46.15 47.46-87.6 83.05-123.19 35.59-35.59 77.03-63.53 123.19-83.05 47.79-20.21 98.54-30.46 150.86-30.46 52.32 0 103.07 10.25 150.86 30.46 46.15 19.52 87.6 47.46 123.19 83.05 35.59 35.59 63.53 77.03 83.05 123.19 20.21 47.79 30.46 98.54 30.46 150.86 0 52.32-10.25 103.07-30.46 150.86-19.52 46.15-47.46 87.6-83.05 123.19-35.59 35.59-77.03 63.53-123.19 83.05-47.79 20.22-98.54 30.46-150.86 30.46z m0-755.1c-49.62 0-97.76 9.72-143.07 28.88-43.77 18.51-83.08 45.02-116.83 78.77-33.76 33.76-60.26 73.07-78.77 116.83-19.16 45.31-28.88 93.44-28.88 143.07s9.72 97.76 28.88 143.07c18.51 43.77 45.02 83.08 78.77 116.83 33.76 33.76 73.07 60.26 116.83 78.77 45.31 19.16 93.44 28.88 143.07 28.88s97.76-9.72 143.07-28.88c43.77-18.51 83.08-45.02 116.83-78.77 33.76-33.76 60.26-73.07 78.77-116.83 19.16-45.31 28.88-93.44 28.88-143.07s-9.72-97.76-28.88-143.07c-18.51-43.77-45.02-83.08-78.77-116.83-33.76-33.76-73.07-60.26-116.83-78.77-45.31-19.17-93.45-28.88-143.07-28.88z" p-id="8236"></path></svg>